<?xml version="1.0" encoding="UTF-8"?><svg xmlns="http://www.w3.org/2000/svg" viewBox="0 0 600 600"><g id="a"/><g id="b"><g><path d="M64.38,207.41C28.82,159.11,24.08,87.94,93.43,31.14c69.36-56.8,140.84-24.16,168.64,5.57,25.03,26.77,115.01,136.05,137.36,178.15,26.11,49.19,5.1,121.58-46.31,159.73-76.5,56.77-136.75,20.02-173.97-12.28-31.48-27.32-88.1-118.68-114.77-154.91Z" fill="#76d671"/><path d="M52.46,157.57c-1.14-9.19-2.79-25.93-1.54-34.42,1.26-8.49,3.9-22.9,9.16-32.58,5.26-9.68,16.27-25.41,25.31-34.79,9.05-9.38,25.76-24,35.35-28.45s32.69-12.26,36.34-12.74,19.36-2.67,33.73-.07c14.38,2.6,31.85,6.98,37.05,9.79s15.88,8.22,23.91,16.05c8.03,7.82,42.38,48.13,50.04,58.45s48.89,65.53,52.93,70.98,27.87,37.56,35.27,54.34c5.49,12.44,5.53,32.76,5.7,41.97,.17,9.21-2.29,43.05-13.07,57.27-10.78,14.23-33.63,37.85-39.03,41.41s-37.35,24.61-58.14,25.36c-20.78,.75-33.29,2.47-56.93-10.22-23.64-12.69-36.18-17.61-56.07-38.42-19.89-20.81-48.74-62.09-53.77-69.47s-51.09-73.68-55.42-80.69c-4.33-7.01-9.68-24.51-10.83-33.75Z" fill="#b0c1ff"/><path d="M74.61,193.63c-11.24-16.33-19.86-52.46-12.56-83.73,5.23-22.38,25.26-48.34,46.07-63.91,15.89-11.89,51.88-28.21,74.84-23.23s42.53,5.92,60.85,22.05c18.32,16.13,61.7,72.87,72.89,87.95s56.73,73.03,63.98,94.79,6.34,65.08-3.46,82.69c-9.81,17.62-35.39,48.23-61.23,59.65s-55.81,15.57-75.76,5.82c-19.95-9.75-40.71-18.9-61.11-41.24-20.39-22.34-59.01-75.1-67.47-88.21-8.46-13.11-30.28-42.8-37.04-52.63Z" fill="#aae6a7"/><path d="M136.33,267.15c16.8,22.63,27.87,41,32.94,44.39,3.55,2.37,9.65-.52,7.25-5.38-4.97-10.06-29.6-32.17-30.49-41.1-.59-5.84,4.78-3.24,11.25,7.58,8.24,13.78,17.5,21.06,20.7,23.69s7.32,1.44,7.14-2.17-9.06-13.89-16.44-22.16-6.96-12.33-4.55-12.87c3.95-.88,6.4,6.25,8.92,11.18,2.78,5.43,12.79,17.68,19.29,24.73s10.68,10.19,16.99,12.38c6.6,2.29,7.38,8.27,3.26,9.45s-15.62-12.88-17.69-13.74c-4.06-1.68-6.7,1.34-5.74,5.51,1.47,6.39,16.67,15.12,21.97,18.06,5.3,2.94,13.76,4.79,11.89,9.29-1.23,2.97-6.45,4.78-14.54-1.08s-20.23-17.57-23.28-19.59c-2.45-1.62-11.09-.21-5.51,8.15,5.58,8.36,20.45,21.25,27.79,25.24,7.33,3.99,25.86,15.08,35.01,18.13,11.62,3.87,26.72,3.6,36.37,1.44,9.64-2.16,30.54-7.67,45.96-19.73,15.41-12.06,29.23-25.44,35.91-36.64,6.68-11.2,12.4-30.44,13.28-46.09,.88-15.65-5.19-45.54-9.67-52.8-6.35-10.28-10.57-11.52-10.79-7.61-.22,3.91,5.53,14.35,8.54,17.4,5.09,5.18,4.65,12.17,.94,13.05-3.72,.88-6.8-4.95-7.97-11.58s-8.84-17.81-14.32-24.36-18.68-16.75-18.46-20.66,5.24-3.89,12.32,3.98c7.08,7.86,11.17,14.21,12.69,11.2s-.66-7.63-6.75-14.99c-6.08-7.36-30-40.84-34.28-46.41s-48.64-64.49-59.53-73.28c-10.89-8.79-35-22.76-40.63-21.08s-6.24,3.38-2.16,9.72c4.08,6.34,2.24,13.96-3.59,14.53-5.82,.57-5.97-3.27-3.76-10.96,2.48-8.62-8.01-4.05-12.61-6.89-4.6-2.83-4.16-10.66-9.07-11.39s-32.53,4.15-41.4,10.73c-8.86,6.58-26.47,16.52-38.09,32.02-11.62,15.49-18.49,25.59-21.65,34.81-3.16,9.22-5.77,29.27-3.82,40.32,1.95,11.05,4.29,24.3,11.45,36.48,7.16,12.18,54.93,79.08,54.93,79.08Z" fill="#cec1b8"/><path d="M130.48,164.27c-20.93-14.59-13.8-36.5,4.02-45.39,15.02-7.49,16.49,4.59,22.51,12.35s15.02,8.5,21.16,6.29c6.05-2.18,14.72-17.2,10.47-25.05s-18.9-12.14-18.62,1.25c.29,14.02,8.14,23.8,18.04,24.31,8.38,.43,13.71-4.68,13.89-15.02,.18-10.34-12.4-16.71-18.04-24.31-5.64-7.6-8.63-14.8-2.55-19.31s16.17-5.72,25.19,6.44-3.27,17.45-.28,29.26c1.71,6.75,11.27,15.19,21.39,10.83,10.11-4.36,20-13.27,17.01-20.47s-12.56-9.52-15.75-3.23-1.91,28.12,7.53,31.32c9.44,3.2,16.91-1.55,9.77-11.18-7.14-9.62-21.83-12.99-26.06-9.72-3.91,3.02-.37,23.84,7.96,22.37,8.33-1.47,21.2-14.62,28.13-8.66s5.58,27.63-3.9,30.73c-9.48,3.1-19.49-11.45-27.94-12.25-8.45-.8-23.02,17.08-13.97,20.57,9.05,3.49,10.22-6.34,8.37-10.13-1.49-3.05-8.22-11.67-13.81-13.31-6.16-1.81-14.26,1.95-18.33,8.1s-4.43,26.84,4.23,35.34c8.66,8.5,20.66,1.54,27.07,8.97,5.83,6.75,8.07,16.61,1.86,22s-13.93,7.89-18.77,3.9c-7.23-5.97-9.36-18.97-20.05-25.96s-32.11-2.4-41.6-5.26c-11.01-3.31-28.08-16.43-29.51-26.01-1.25-8.37,7.04-20.15,19.78-20.96s24.45,5.73,25.54,13.25c.77,5.27-4.98,12.34-10.91,12.81-5.93,.47-9.82-1.04-13.85-3.85Z" fill="none" stroke="#e44e60" stroke-miterlimit="10" stroke-width="3.35"/><path d="M243.33,317.9c2.61,11.26,12.15,18.33,21.24,19.04,10.97,.86,19.08-2.15,25-8.55s7.67-13.03,4.05-17.01c-3.62-3.98-9.14,3.9-15.19,6.94-4.32,2.17-10.95,4.12-17.28-.13-5.2-3.49-9.53-13.99-13.23-13.58-6.41,.71-5.2,10.64-4.59,13.28Z" fill="none" stroke="#819bff" stroke-miterlimit="10" stroke-width="2.84"/><path d="M336.94,372.59c-4.57-2.3-8.48-7.36-6.75-11.97,2.59-6.88,5.42-6.5,8.89-6.26s6.55,2.12,8.69,5.86c2.25,3.95,3.43,9.12,3.64,10.3s3.02,6.94,7.16,11.69c10.07,11.53,35.12,34.96,47.32,37.91s23.87,2.61,36.79-.29c15.24-3.42,27.73-9.74,42.28-12.27,12.76-2.22,27.27-.79,48.05,7.8,20.78,8.59,45.41,36.66,38.21,63.13-4.73,17.37-14.11,28.75-27.95,37.06-19.02,11.42-82.79,33.19-91.61,60.07-4.66,14.19,10.47,24.37,10.47,24.37,0,0-18.35-10.18-14.66-23.34,2.92-10.41,14.43-23.25,26.36-30.38,17.26-10.31,26.8-13.29,37.43-19.18s32.65-15.34,40.41-25.1c7.76-9.76,15.24-25.23,14.85-33.03-.73-14.8-9.69-26.29-17.42-34.55-7.73-8.27-24.28-15.97-32.27-17.6-12.21-2.49-19.96-6.64-38.91-1.02-27.49,8.15-44.41,13.39-55.34,13.5-10.93,.1-20.83-3.66-29.8-9.01-8.97-5.35-35.15-30.6-38.6-34.04s-7.99-8.97-9.77-9.87-6.04-3.06-7.48-3.79Z" fill="#858585"/><path d="M398.11,303.42c-1.15-.19-3.9,1.13-6.87,.47s-5.77-4.25-4.94-6.44,3.15-3.56,7.08-2.5,4.64,4.34,5.9,4.58,8.38,2.87,14.16,1.88,18.42-13.28,32.8-18.47c14.38-5.19,35.75-2.05,47.33,10.97,11.59,13.02,11.74,30.49,16.07,39.99,3.82,8.37,20.75,15.9,30.41,9.66,8.6-5.56,10.78-15.1,10.78-15.1,0,0,.75,8.16-3.09,13.12-3.52,4.55-8.7,9.47-20.17,8.21s-21.06-9.53-23.95-20.52-3.47-18.68-11.02-29.84-26.46-15.94-36.7-14.47c-10.13,1.46-14.91,4.61-28.73,13.56-16.32,10.55-21.6,6.15-29.07,4.89Z" fill="#858585"/><path d="M246.09,469.92c-6-8-9.55-15.55-10.72-25.24-.91-7.56,.73-17.86,3.58-25.31s12.69-23.52,12.84-24.89-.5-6.1,2.99-8.63c1.83-1.32,5.36-.32,4.81,4.4-.28,2.43-1.7,4.61-3.25,6.33-.94,1.05-15.64,20.77-17.37,39.11-1.73,18.35,6.46,32.83,23.3,44.18,7.4,4.99,21.83,8.64,35.17,12.78,13.15,4.08,25.59,6.84,34.54,19.84,5.57,8.09,2.93,24.83-3.33,33.68s-21.4,14.08-21.4,14.08c0,0,6.57-4.26,12.69-8.94,5.74-4.38,8.71-9.57,10.53-16.03s2.13-13.32,1.07-16.97c-2.01-6.9-7.16-10.82-12.86-14.05s-27.93-10.77-38.34-13.34-26.27-10.37-34.24-21Z" fill="#858585"/><path d="M455.12,564.65c3.24-5.07,12.59-11.34,22.05-18.36s27.17-14.16,46.02-23.81c18.85-9.65,26.48-15.98,31.76-21.9,5.28-5.92,12.28-23.45,12.94-27.94,.67-4.49-.46-15-7.04-26.12-6.58-11.12-16.46-18.13-22.27-22.82s-20.41-9.53-31.06-11.3c-10.65-1.77-22.97,.04-27.37,1.31-4.4,1.26-33.52,9.2-44.08,12.06-10.57,2.86-20.84,1.11-30.09-1.03s-22.16-13.23-28.13-18.14c-5.97-4.9-25.15-25.35-30.15-30.31-5.01-4.95-5.22-4.66-9.17-7.74-3.95-3.07-5.49-5.73-5.82-12.47-.86,.96-1.69,2.39-2.5,4.54-1.74,4.61,2.17,9.67,6.75,11.97,1.44,.72,5.7,2.89,7.48,3.79,1.78,.9,6.32,6.42,9.77,9.87,3.45,3.45,29.63,28.7,38.6,34.04s18.88,9.11,29.8,9.01c10.93-.1,27.84-5.35,55.34-13.5,18.95-5.62,26.7-1.47,38.91,1.02,8,1.63,24.54,9.33,32.27,17.6,7.73,8.27,16.69,19.76,17.42,34.55,.38,7.79-7.09,23.27-14.85,33.03-7.76,9.76-29.78,19.21-40.41,25.1-10.63,5.89-20.17,8.86-37.43,19.18-11.93,7.13-23.55,19.95-26.36,30.38-3.62,13.45,14.66,23.34,14.66,23.34,0,0-13.43-7.21-14.12-19-.41-7.02,3.87-11.28,7.11-16.35Z" fill="#676766"/><path d="M327.95,543.81c2.56-3.74,3.75-9.78,4.54-12.54,.79-2.75,.77-9.74-.2-14.19s-5.18-7.66-7.53-9.92c-2.34-2.26-8.81-5.13-11.13-6.24s-14.81-5.35-18.17-6.52c-3.37-1.17-13.58-3.93-16.71-4.77-3.13-.85-12.91-5.26-14.5-5.91-1.59-.65-11.01-6.45-18.83-15.87-7.82-9.42-8.75-21.3-9.28-28.01s3.02-17.8,4.95-23.01c1.93-5.21,7.99-14.37,9.03-16.26,1.04-1.89,3.02-4.02,3.03-5.8s-1.11-6.01,1.64-8.92c-3.49,2.53-2.84,7.22-2.99,8.63-.15,1.37-9.92,17.24-12.84,24.89-2.85,7.45-4.48,17.75-3.58,25.31,1.17,9.69,4.72,17.24,10.72,25.24,7.97,10.63,23.47,18.34,34.24,21,10.42,2.57,32.64,10.11,38.34,13.34,5.7,3.23,10.85,7.15,12.86,14.05,1.06,3.65,.75,10.51-1.07,16.97s-4.8,11.65-10.53,16.03c-6.12,4.68-12.69,8.94-12.69,8.94,0,0,6.16-3.47,11.67-7.06,5.51-3.59,6.48-5.64,9.04-9.38Z" fill="#676766"/><path d="M548.3,338.69c-2.05,3.08-4.68,7.25-9.36,8.95-4.69,1.7-9.11,1.2-13,.75s-6.64-.79-12.47-5.42c-5.83-4.63-7.94-11-9.38-15.94-1.44-4.93-3.25-13.37-3.67-14.83-.42-1.47-3.77-9.87-8.42-15.54s-8.68-6.9-14.16-9.5-14.3-3.39-17.83-3.66c-3.53-.27-12.08,2.21-16.63,4.23-3.98,1.77-10.2,5.45-14.75,8.61-4.55,3.15-10.17,6.21-14.1,7.35-3.7,1.07-8.55,.58-8.55,.58-3.62-.72-5.94-1.83-7.01-2.37-1.07-.54-2.14-.19-3.75,.34-1.61,.53-3.91,.12-5.21-1.03-1.32-1.17-1.99-2.08-2.78-5.22h0c-.41,.42-.71,.92-.92,1.47-.83,2.19,1.97,5.78,4.94,6.44,2.97,.66,5.72-.67,6.87-.47,7.47,1.27,12.75,5.67,29.07-4.89,13.82-8.94,18.6-12.1,28.73-13.56,10.24-1.48,29,3.09,36.7,14.47,7.55,11.15,8.13,18.85,11.02,29.84,2.89,10.99,12.16,19.22,23.95,20.52,11.48,1.27,16.66-3.66,20.17-8.21,3.84-4.96,3.09-13.12,3.09-13.12,0,0-.5,7.13-2.55,10.21Z" fill="#676766"/><g id="c"><g><path d="M385.26,10.43v1.09l-2.11,.25c.19,.24,.37,.56,.52,.95,.15,.39,.23,.83,.23,1.33,0,1.12-.38,2.01-1.15,2.68-.76,.67-1.81,1-3.14,1-.34,0-.66-.03-.96-.08-.74,.39-1.1,.88-1.1,1.47,0,.31,.13,.54,.39,.69,.26,.15,.7,.22,1.32,.22h2.02c1.24,0,2.18,.26,2.85,.78,.66,.52,.99,1.28,.99,2.27,0,1.26-.51,2.23-1.52,2.89-1.01,.66-2.49,.99-4.44,.99-1.49,0-2.64-.28-3.45-.83-.81-.56-1.21-1.34-1.21-2.35,0-.69,.22-1.29,.67-1.8,.44-.51,1.07-.85,1.87-1.03-.29-.13-.54-.34-.73-.61-.2-.28-.3-.6-.3-.97,0-.42,.11-.78,.33-1.09,.22-.31,.57-.61,1.05-.91-.59-.24-1.07-.66-1.44-1.24-.37-.58-.56-1.25-.56-2,0-1.25,.37-2.21,1.12-2.89,.75-.68,1.81-1.02,3.19-1.02,.6,0,1.14,.07,1.61,.21h3.95Zm-9.1,13.33c0,.62,.26,1.09,.78,1.41,.52,.32,1.27,.48,2.24,.48,1.45,0,2.53-.22,3.22-.65,.7-.43,1.05-1.02,1.05-1.77,0-.62-.19-1.05-.57-1.29-.38-.24-1.1-.36-2.16-.36h-2.07c-.78,0-1.4,.19-1.83,.56s-.66,.91-.66,1.61Zm.94-9.67c0,.8,.23,1.4,.68,1.81,.45,.41,1.08,.61,1.88,.61,1.69,0,2.53-.82,2.53-2.46s-.85-2.57-2.56-2.57c-.81,0-1.44,.22-1.87,.66s-.66,1.09-.66,1.95Z" fill="#fff"/><path d="M392.43,22.06c-1.69,0-3.02-.51-3.99-1.54-.98-1.03-1.46-2.45-1.46-4.28s.45-3.3,1.36-4.38c.91-1.08,2.12-1.62,3.65-1.62,1.43,0,2.56,.47,3.39,1.41,.83,.94,1.25,2.18,1.25,3.72v1.09h-7.86c.03,1.34,.37,2.36,1.02,3.05,.64,.69,1.55,1.04,2.71,1.04,1.23,0,2.44-.26,3.64-.77v1.54c-.61,.26-1.19,.45-1.73,.57-.55,.11-1.2,.17-1.97,.17Zm-.47-10.38c-.92,0-1.65,.3-2.19,.9-.55,.6-.87,1.42-.96,2.48h5.97c0-1.09-.24-1.92-.73-2.5-.49-.58-1.18-.87-2.08-.87Z" fill="#fff"/><path d="M407.38,21.85v-7.38c0-.93-.21-1.62-.64-2.08-.42-.46-1.09-.69-1.99-.69-1.19,0-2.07,.32-2.62,.97-.56,.65-.83,1.71-.83,3.2v5.99h-1.73V10.43h1.41l.28,1.56h.08c.35-.56,.85-1,1.49-1.31,.64-.31,1.35-.46,2.13-.46,1.37,0,2.41,.33,3.1,.99,.69,.66,1.04,1.72,1.04,3.18v7.45h-1.73Z" fill="#fff"/><path d="M417.48,22.06c-1.69,0-3.02-.51-3.99-1.54-.98-1.03-1.46-2.45-1.46-4.28s.45-3.3,1.36-4.38c.91-1.08,2.12-1.62,3.65-1.62,1.43,0,2.56,.47,3.39,1.41,.83,.94,1.25,2.18,1.25,3.72v1.09h-7.86c.03,1.34,.37,2.36,1.02,3.05,.64,.69,1.55,1.04,2.71,1.04,1.23,0,2.44-.26,3.64-.77v1.54c-.61,.26-1.19,.45-1.73,.57-.55,.11-1.2,.17-1.97,.17Zm-.47-10.38c-.92,0-1.65,.3-2.19,.9-.55,.6-.87,1.42-.96,2.48h5.97c0-1.09-.24-1.92-.73-2.5-.49-.58-1.18-.87-2.08-.87Z" fill="#fff"/><path d="M428.31,20.63c.31,0,.6-.02,.89-.07,.28-.05,.51-.09,.68-.14v1.32c-.19,.09-.46,.16-.83,.22-.36,.06-.69,.09-.98,.09-2.21,0-3.31-1.16-3.31-3.49v-6.79h-1.63v-.83l1.63-.72,.73-2.44h1v2.64h3.31v1.34h-3.31v6.72c0,.69,.16,1.21,.49,1.58,.33,.37,.77,.55,1.34,.55Z" fill="#fff"/><path d="M432.01,7.34c0-.4,.1-.69,.29-.87,.19-.18,.44-.28,.73-.28s.52,.09,.72,.28c.2,.19,.3,.48,.3,.86s-.1,.68-.3,.87c-.2,.19-.44,.29-.72,.29-.29,0-.53-.1-.73-.29-.19-.19-.29-.48-.29-.87Zm1.87,14.51h-1.73V10.43h1.73v11.41Z" fill="#fff"/><path d="M444.91,18.73c0,1.06-.4,1.88-1.19,2.46-.79,.58-1.9,.86-3.33,.86-1.51,0-2.69-.24-3.54-.72v-1.6c.55,.28,1.14,.5,1.77,.66,.63,.16,1.23,.24,1.82,.24,.9,0,1.6-.14,2.08-.43,.49-.29,.73-.73,.73-1.32,0-.44-.19-.82-.58-1.14-.39-.32-1.14-.69-2.25-1.12-1.06-.4-1.82-.74-2.26-1.04-.45-.3-.78-.63-1-1s-.33-.82-.33-1.34c0-.93,.38-1.66,1.14-2.2,.76-.54,1.79-.81,3.11-.81,1.23,0,2.43,.25,3.6,.75l-.61,1.41c-1.15-.47-2.18-.71-3.11-.71-.82,0-1.44,.13-1.85,.39s-.62,.61-.62,1.06c0,.31,.08,.57,.23,.78,.16,.22,.41,.42,.76,.61,.35,.19,1.01,.48,2,.84,1.35,.49,2.27,.99,2.74,1.49,.48,.5,.71,1.13,.71,1.88Z" fill="#fff"/><path d="M452.28,22.06c-1.65,0-2.93-.51-3.84-1.53-.91-1.02-1.36-2.46-1.36-4.32s.46-3.38,1.38-4.43c.92-1.04,2.23-1.56,3.93-1.56,.55,0,1.1,.06,1.65,.18,.55,.12,.98,.26,1.29,.42l-.53,1.47c-.38-.15-.8-.28-1.25-.38-.45-.1-.85-.15-1.2-.15-2.32,0-3.48,1.48-3.48,4.44,0,1.4,.28,2.48,.85,3.23,.57,.75,1.4,1.12,2.51,1.12,.95,0,1.93-.2,2.93-.61v1.53c-.76,.4-1.73,.59-2.88,.59Z" fill="#fff"/><path d="M465.68,21.85v-7.38c0-.93-.21-1.62-.64-2.08-.42-.46-1.09-.69-1.99-.69-1.2,0-2.08,.33-2.63,.98-.55,.65-.83,1.72-.83,3.21v5.97h-1.73V5.64h1.73v4.9c0,.59-.03,1.08-.08,1.47h.1c.34-.55,.82-.98,1.45-1.3,.63-.32,1.34-.47,2.15-.47,1.4,0,2.44,.33,3.14,.99,.7,.66,1.05,1.72,1.05,3.16v7.45h-1.73Z" fill="#fff"/><path d="M475.78,22.06c-1.69,0-3.02-.51-3.99-1.54-.98-1.03-1.46-2.45-1.46-4.28s.45-3.3,1.36-4.38c.91-1.08,2.12-1.62,3.65-1.62,1.43,0,2.56,.47,3.39,1.41,.83,.94,1.25,2.18,1.25,3.72v1.09h-7.86c.03,1.34,.37,2.36,1.02,3.05,.64,.69,1.55,1.04,2.71,1.04,1.23,0,2.44-.26,3.64-.77v1.54c-.61,.26-1.19,.45-1.73,.57-.55,.11-1.2,.17-1.97,.17Zm-.47-10.38c-.92,0-1.65,.3-2.19,.9-.55,.6-.87,1.42-.96,2.48h5.97c0-1.09-.24-1.92-.73-2.5-.49-.58-1.18-.87-2.08-.87Z" fill="#fff"/><path d="M490.29,18.73c0,1.06-.4,1.88-1.19,2.46-.79,.58-1.9,.86-3.33,.86-1.51,0-2.69-.24-3.54-.72v-1.6c.55,.28,1.14,.5,1.77,.66,.63,.16,1.23,.24,1.82,.24,.9,0,1.6-.14,2.08-.43,.49-.29,.73-.73,.73-1.32,0-.44-.19-.82-.58-1.14-.39-.32-1.14-.69-2.25-1.12-1.06-.4-1.82-.74-2.26-1.04-.45-.3-.78-.63-1-1-.22-.37-.33-.82-.33-1.34,0-.93,.38-1.66,1.14-2.2,.76-.54,1.79-.81,3.11-.81,1.23,0,2.43,.25,3.6,.75l-.61,1.41c-1.15-.47-2.18-.71-3.11-.71-.82,0-1.44,.13-1.85,.39-.42,.26-.62,.61-.62,1.06,0,.31,.08,.57,.23,.78,.16,.22,.41,.42,.75,.61,.35,.19,1.01,.48,2,.84,1.35,.49,2.27,.99,2.74,1.49,.48,.5,.71,1.13,.71,1.88Z" fill="#fff"/><path d="M505.64,21.85l-5.16-13.5h-.08c.1,1.07,.15,2.34,.15,3.81v9.68h-1.63V6.62h2.67l4.82,12.56h.08l4.86-12.56h2.64v15.22h-1.77V12.04c0-1.12,.05-2.35,.15-3.67h-.08l-5.21,13.47h-1.43Z" fill="#fff"/><path d="M524.91,21.85l-.34-1.62h-.08c-.57,.72-1.14,1.2-1.7,1.45-.57,.25-1.27,.38-2.12,.38-1.13,0-2.02-.29-2.66-.87-.64-.58-.96-1.41-.96-2.49,0-2.3,1.84-3.51,5.53-3.62l1.94-.06v-.71c0-.9-.19-1.56-.58-1.98-.39-.43-1-.64-1.85-.64-.95,0-2.03,.29-3.23,.87l-.53-1.32c.56-.31,1.18-.54,1.85-.72,.67-.17,1.34-.26,2.01-.26,1.36,0,2.37,.3,3.03,.91,.66,.6,.98,1.57,.98,2.91v7.79h-1.28Zm-3.9-1.22c1.08,0,1.92-.29,2.54-.89,.61-.59,.92-1.42,.92-2.48v-1.03l-1.73,.07c-1.37,.05-2.37,.26-2.97,.64-.61,.38-.91,.97-.91,1.77,0,.62,.19,1.1,.57,1.43,.38,.33,.91,.49,1.59,.49Z" fill="#fff"/><path d="M533.44,20.63c.31,0,.6-.02,.89-.07,.28-.05,.51-.09,.68-.14v1.32c-.19,.09-.46,.16-.83,.22-.36,.06-.69,.09-.98,.09-2.21,0-3.31-1.16-3.31-3.49v-6.79h-1.63v-.83l1.63-.72,.73-2.44h1v2.64h3.31v1.34h-3.31v6.72c0,.69,.16,1.21,.49,1.58,.33,.37,.77,.55,1.34,.55Z" fill="#fff"/><path d="M542.11,22.06c-1.69,0-3.02-.51-3.99-1.54-.98-1.03-1.46-2.45-1.46-4.28s.45-3.3,1.36-4.38c.91-1.08,2.12-1.62,3.65-1.62,1.43,0,2.56,.47,3.39,1.41,.83,.94,1.25,2.18,1.25,3.72v1.09h-7.86c.03,1.34,.37,2.36,1.02,3.05,.64,.69,1.55,1.04,2.71,1.04,1.23,0,2.44-.26,3.64-.77v1.54c-.61,.26-1.19,.45-1.73,.57-.55,.11-1.2,.17-1.97,.17Zm-.47-10.38c-.92,0-1.65,.3-2.19,.9-.55,.6-.87,1.42-.96,2.48h5.97c0-1.09-.24-1.92-.73-2.5-.49-.58-1.18-.87-2.08-.87Z" fill="#fff"/><path d="M554.46,10.23c.51,0,.96,.04,1.36,.12l-.24,1.6c-.47-.1-.89-.16-1.25-.16-.92,0-1.71,.37-2.37,1.12s-.98,1.68-.98,2.8v6.12h-1.73V10.43h1.43l.2,2.11h.08c.42-.74,.93-1.32,1.53-1.72,.6-.4,1.25-.6,1.97-.6Z" fill="#fff"/><path d="M557.81,7.34c0-.4,.1-.69,.29-.87,.19-.18,.44-.28,.73-.28s.52,.09,.72,.28c.2,.19,.3,.48,.3,.86s-.1,.68-.3,.87c-.2,.19-.44,.29-.72,.29-.29,0-.53-.1-.73-.29-.19-.19-.29-.48-.29-.87Zm1.87,14.51h-1.73V10.43h1.73v11.41Z" fill="#fff"/><path d="M570.37,21.85l-.34-1.62h-.08c-.57,.72-1.14,1.2-1.7,1.45-.57,.25-1.27,.38-2.12,.38-1.13,0-2.02-.29-2.66-.87s-.96-1.41-.96-2.49c0-2.3,1.84-3.51,5.53-3.62l1.94-.06v-.71c0-.9-.19-1.56-.58-1.98-.39-.43-1-.64-1.85-.64-.95,0-2.03,.29-3.23,.87l-.53-1.32c.56-.31,1.18-.54,1.85-.72,.67-.17,1.34-.26,2.02-.26,1.36,0,2.37,.3,3.02,.91,.66,.6,.98,1.57,.98,2.91v7.79h-1.28Zm-3.9-1.22c1.08,0,1.92-.29,2.54-.89,.61-.59,.92-1.42,.92-2.48v-1.03l-1.73,.07c-1.37,.05-2.37,.26-2.97,.64-.61,.38-.91,.97-.91,1.77,0,.62,.19,1.1,.57,1.43,.38,.33,.91,.49,1.59,.49Z" fill="#fff"/><path d="M576.94,21.85h-1.73V5.64h1.73V21.85Z" fill="#fff"/></g><g><path d="M499.34,216.49h-10.47v-1.38l8.08-12.25h-7.83v-1.59h9.99v1.39l-8.08,12.24h8.31v1.6Z" fill="#fff"/><path d="M506.85,216.69c-1.69,0-3.02-.51-3.99-1.54-.98-1.03-1.46-2.45-1.46-4.28s.45-3.3,1.36-4.38c.91-1.08,2.12-1.62,3.65-1.62,1.43,0,2.56,.47,3.39,1.41,.83,.94,1.25,2.18,1.25,3.72v1.09h-7.86c.03,1.34,.37,2.36,1.02,3.05,.64,.69,1.55,1.04,2.71,1.04,1.23,0,2.44-.26,3.64-.77v1.54c-.61,.26-1.19,.45-1.73,.57-.55,.11-1.2,.17-1.97,.17Zm-.47-10.38c-.92,0-1.65,.3-2.19,.9-.55,.6-.87,1.42-.96,2.48h5.97c0-1.09-.24-1.92-.73-2.5-.49-.58-1.18-.87-2.08-.87Z" fill="#fff"/><path d="M515.72,216.49h-1.73v-16.2h1.73v16.2Z" fill="#fff"/><path d="M521.12,216.49h-1.73v-16.2h1.73v16.2Z" fill="#fff"/><path d="M534.1,216.49l-2.09-6.7c-.13-.41-.38-1.34-.74-2.79h-.08c-.28,1.21-.52,2.15-.73,2.81l-2.16,6.67h-2l-3.11-11.41h1.81c.74,2.87,1.3,5.05,1.68,6.55,.39,1.5,.61,2.51,.66,3.03h.08c.08-.4,.2-.91,.37-1.54,.17-.63,.32-1.13,.44-1.49l2.09-6.55h1.87l2.04,6.55c.39,1.19,.65,2.2,.79,3.01h.08c.03-.25,.1-.64,.22-1.16,.12-.52,.85-3.32,2.17-8.4h1.79l-3.16,11.41h-2.05Z" fill="#fff"/><path d="M548.39,216.49l-.34-1.62h-.08c-.57,.72-1.14,1.2-1.7,1.45-.57,.25-1.27,.38-2.12,.38-1.13,0-2.02-.29-2.66-.87-.64-.58-.96-1.41-.96-2.49,0-2.3,1.84-3.51,5.53-3.62l1.94-.06v-.71c0-.9-.19-1.56-.58-1.98-.39-.43-1-.64-1.85-.64-.95,0-2.03,.29-3.23,.87l-.53-1.32c.56-.31,1.18-.54,1.85-.72,.67-.17,1.34-.26,2.01-.26,1.36,0,2.37,.3,3.03,.91,.66,.6,.98,1.57,.98,2.91v7.79h-1.28Zm-3.9-1.22c1.08,0,1.92-.29,2.54-.89,.61-.59,.92-1.42,.92-2.48v-1.03l-1.73,.07c-1.37,.05-2.37,.26-2.97,.64-.61,.38-.91,.97-.91,1.77,0,.62,.19,1.1,.57,1.43,.38,.33,.91,.49,1.59,.49Z" fill="#fff"/><path d="M561.04,216.49v-7.38c0-.93-.21-1.62-.64-2.08-.42-.46-1.09-.69-1.99-.69-1.19,0-2.07,.32-2.62,.97-.56,.65-.83,1.71-.83,3.2v5.99h-1.73v-11.41h1.41l.28,1.56h.08c.35-.56,.85-1,1.49-1.31,.64-.31,1.35-.46,2.13-.46,1.37,0,2.41,.33,3.1,.99,.69,.66,1.04,1.72,1.04,3.18v7.45h-1.73Z" fill="#fff"/><path d="M574.09,214.95h-.09c-.8,1.16-1.99,1.74-3.58,1.74-1.49,0-2.65-.51-3.48-1.53-.83-1.02-1.24-2.47-1.24-4.35s.42-3.34,1.25-4.38,1.99-1.56,3.48-1.56,2.74,.56,3.56,1.69h.14l-.07-.82-.04-.8v-4.64h1.73v16.2h-1.41l-.23-1.53Zm-3.46,.29c1.18,0,2.04-.32,2.57-.96,.53-.64,.8-1.68,.8-3.11v-.36c0-1.62-.27-2.77-.81-3.46-.54-.69-1.4-1.04-2.58-1.04-1.01,0-1.79,.39-2.33,1.18-.54,.79-.81,1.9-.81,3.34s.27,2.56,.8,3.3c.53,.74,1.32,1.11,2.35,1.11Z" fill="#fff"/></g><g><path d="M32.16,405.07h-10.47v-1.38l8.08-12.25h-7.83v-1.59h9.99v1.39l-8.08,12.24h8.31v1.6Z" fill="#fff"/><path d="M39.67,405.27c-1.69,0-3.02-.51-3.99-1.54-.98-1.03-1.46-2.45-1.46-4.28s.45-3.3,1.36-4.38c.91-1.08,2.12-1.62,3.65-1.62,1.43,0,2.56,.47,3.39,1.41,.83,.94,1.25,2.18,1.25,3.72v1.09h-7.86c.03,1.34,.37,2.36,1.02,3.05,.64,.69,1.55,1.04,2.71,1.04,1.23,0,2.44-.26,3.64-.77v1.54c-.61,.26-1.19,.45-1.73,.57-.55,.11-1.2,.17-1.97,.17Zm-.47-10.38c-.92,0-1.65,.3-2.19,.9-.55,.6-.87,1.42-.96,2.48h5.97c0-1.09-.24-1.92-.73-2.5-.49-.58-1.18-.87-2.08-.87Z" fill="#fff"/><path d="M48.54,405.07h-1.73v-16.2h1.73v16.2Z" fill="#fff"/><path d="M53.94,405.07h-1.73v-16.2h1.73v16.2Z" fill="#fff"/><path d="M62.91,405.27c-.74,0-1.42-.14-2.04-.41-.61-.27-1.13-.7-1.55-1.27h-.12c.08,.67,.12,1.3,.12,1.9v4.7h-1.73v-16.54h1.41l.24,1.56h.08c.44-.62,.96-1.08,1.55-1.35,.59-.28,1.27-.42,2.03-.42,1.51,0,2.68,.52,3.5,1.55,.82,1.03,1.23,2.49,1.23,4.35s-.42,3.33-1.25,4.37c-.84,1.04-2,1.56-3.48,1.56Zm-.25-10.36c-1.17,0-2.01,.32-2.53,.97-.52,.65-.79,1.67-.8,3.08v.39c0,1.6,.27,2.75,.8,3.44,.53,.69,1.39,1.04,2.57,1.04,.99,0,1.76-.4,2.32-1.2,.56-.8,.84-1.9,.84-3.3s-.28-2.51-.84-3.27c-.56-.76-1.35-1.14-2.36-1.14Z" fill="#fff"/><path d="M72.4,405.07h-1.73v-16.2h1.73v16.2Z" fill="#fff"/><path d="M83.08,405.07l-.34-1.62h-.08c-.57,.72-1.14,1.2-1.7,1.45-.57,.25-1.27,.38-2.12,.38-1.13,0-2.02-.29-2.66-.87-.64-.58-.96-1.41-.96-2.49,0-2.3,1.84-3.51,5.53-3.62l1.94-.06v-.71c0-.9-.19-1.56-.58-1.98-.39-.43-1-.64-1.85-.64-.95,0-2.03,.29-3.23,.87l-.53-1.32c.56-.31,1.18-.54,1.85-.72,.67-.17,1.34-.26,2.01-.26,1.36,0,2.37,.3,3.02,.91,.66,.6,.98,1.57,.98,2.91v7.79h-1.28Zm-3.9-1.22c1.08,0,1.92-.29,2.54-.89,.61-.59,.92-1.42,.92-2.48v-1.03l-1.73,.07c-1.37,.05-2.37,.26-2.97,.64-.61,.38-.91,.97-.91,1.77,0,.62,.19,1.1,.57,1.43,.38,.33,.91,.49,1.59,.49Z" fill="#fff"/><path d="M95.29,401.95c0,1.06-.4,1.88-1.19,2.46-.79,.58-1.9,.86-3.33,.86-1.51,0-2.69-.24-3.54-.72v-1.6c.55,.28,1.14,.5,1.76,.66,.63,.16,1.23,.24,1.82,.24,.9,0,1.6-.14,2.08-.43,.49-.29,.73-.73,.73-1.32,0-.44-.19-.82-.58-1.14-.39-.32-1.14-.69-2.25-1.12-1.06-.4-1.82-.74-2.26-1.04-.45-.3-.78-.63-1-1s-.33-.82-.33-1.34c0-.93,.38-1.66,1.14-2.2,.76-.54,1.79-.81,3.11-.81,1.23,0,2.43,.25,3.6,.75l-.61,1.41c-1.15-.47-2.18-.71-3.11-.71-.82,0-1.44,.13-1.85,.39-.42,.26-.62,.61-.62,1.06,0,.31,.08,.57,.23,.78,.16,.22,.41,.42,.75,.61,.35,.19,1.01,.48,2,.84,1.35,.49,2.27,.99,2.74,1.49,.48,.5,.71,1.13,.71,1.88Z" fill="#fff"/><path d="M112.64,405.07v-7.42c0-.91-.19-1.59-.58-2.05-.39-.45-.99-.68-1.81-.68-1.08,0-1.87,.31-2.38,.93-.51,.62-.77,1.57-.77,2.85v6.37h-1.73v-7.42c0-.91-.19-1.59-.58-2.05-.39-.45-1-.68-1.82-.68-1.08,0-1.88,.32-2.38,.97-.5,.65-.75,1.71-.75,3.19v5.99h-1.73v-11.41h1.41l.28,1.56h.08c.33-.56,.79-.99,1.38-1.3,.59-.31,1.26-.47,1.99-.47,1.78,0,2.95,.65,3.5,1.94h.08c.34-.6,.83-1.07,1.48-1.42,.65-.35,1.38-.52,2.21-.52,1.29,0,2.26,.33,2.9,.99,.64,.66,.96,1.72,.96,3.18v7.45h-1.73Z" fill="#fff"/><path d="M124.95,405.07l-.34-1.62h-.08c-.57,.72-1.14,1.2-1.7,1.45-.57,.25-1.27,.38-2.12,.38-1.13,0-2.02-.29-2.66-.87-.64-.58-.96-1.41-.96-2.49,0-2.3,1.84-3.51,5.53-3.62l1.94-.06v-.71c0-.9-.19-1.56-.58-1.98-.39-.43-1-.64-1.85-.64-.95,0-2.03,.29-3.23,.87l-.53-1.32c.56-.31,1.18-.54,1.85-.72,.67-.17,1.34-.26,2.01-.26,1.36,0,2.37,.3,3.02,.91,.66,.6,.98,1.57,.98,2.91v7.79h-1.28Zm-3.9-1.22c1.08,0,1.92-.29,2.54-.89,.61-.59,.92-1.42,.92-2.48v-1.03l-1.73,.07c-1.37,.05-2.37,.26-2.97,.64-.61,.38-.91,.97-.91,1.77,0,.62,.19,1.1,.57,1.43,.38,.33,.91,.49,1.59,.49Z" fill="#fff"/></g><g><path d="M457.19,149.21h-10.47v-1.38l8.08-12.25h-7.83v-1.59h9.99v1.39l-8.08,12.24h8.31v1.6Z" fill="#fff"/><path d="M464.7,149.42c-1.69,0-3.02-.51-3.99-1.54-.98-1.03-1.46-2.45-1.46-4.28s.45-3.3,1.36-4.38c.91-1.08,2.12-1.62,3.65-1.62,1.43,0,2.56,.47,3.39,1.41,.83,.94,1.25,2.18,1.25,3.72v1.09h-7.86c.03,1.34,.37,2.36,1.02,3.05,.64,.69,1.55,1.04,2.71,1.04,1.23,0,2.44-.26,3.64-.77v1.54c-.61,.26-1.19,.45-1.73,.57-.55,.11-1.2,.17-1.97,.17Zm-.47-10.38c-.92,0-1.65,.3-2.19,.9-.55,.6-.87,1.42-.96,2.48h5.97c0-1.09-.24-1.92-.73-2.5-.49-.58-1.18-.87-2.08-.87Z" fill="#fff"/><path d="M473.57,149.21h-1.73v-16.2h1.73v16.2Z" fill="#fff"/><path d="M478.96,149.21h-1.73v-16.2h1.73v16.2Z" fill="#fff"/><path d="M497.17,149.21v-7.42c0-.91-.19-1.59-.58-2.05-.39-.45-.99-.68-1.81-.68-1.08,0-1.87,.31-2.38,.93-.51,.62-.77,1.57-.77,2.85v6.37h-1.73v-7.42c0-.91-.19-1.59-.58-2.05s-1-.68-1.82-.68c-1.08,0-1.88,.32-2.38,.97-.5,.65-.76,1.71-.76,3.19v5.99h-1.73v-11.41h1.41l.28,1.56h.08c.33-.56,.79-.99,1.38-1.3s1.26-.47,1.99-.47c1.78,0,2.95,.65,3.5,1.94h.08c.34-.6,.83-1.07,1.48-1.42,.65-.35,1.38-.52,2.21-.52,1.29,0,2.26,.33,2.9,.99,.64,.66,.96,1.72,.96,3.18v7.45h-1.73Z" fill="#fff"/><path d="M507.29,149.42c-1.69,0-3.02-.51-3.99-1.54-.98-1.03-1.46-2.45-1.46-4.28s.45-3.3,1.36-4.38c.91-1.08,2.12-1.62,3.65-1.62,1.43,0,2.56,.47,3.39,1.41,.83,.94,1.25,2.18,1.25,3.72v1.09h-7.86c.03,1.34,.37,2.36,1.02,3.05,.64,.69,1.55,1.04,2.71,1.04,1.23,0,2.44-.26,3.64-.77v1.54c-.61,.26-1.19,.45-1.73,.57-.55,.11-1.2,.17-1.97,.17Zm-.47-10.38c-.92,0-1.65,.3-2.19,.9-.55,.6-.87,1.42-.96,2.48h5.97c0-1.09-.24-1.92-.73-2.5-.49-.58-1.18-.87-2.08-.87Z" fill="#fff"/><path d="M528.98,149.21v-7.42c0-.91-.19-1.59-.58-2.05-.39-.45-.99-.68-1.81-.68-1.08,0-1.87,.31-2.38,.93-.51,.62-.77,1.57-.77,2.85v6.37h-1.73v-7.42c0-.91-.19-1.59-.58-2.05s-1-.68-1.82-.68c-1.08,0-1.88,.32-2.38,.97-.5,.65-.76,1.71-.76,3.19v5.99h-1.73v-11.41h1.41l.28,1.56h.08c.33-.56,.79-.99,1.38-1.3s1.26-.47,1.99-.47c1.78,0,2.95,.65,3.5,1.94h.08c.34-.6,.83-1.07,1.48-1.42,.65-.35,1.38-.52,2.21-.52,1.29,0,2.26,.33,2.9,.99,.64,.66,.96,1.72,.96,3.18v7.45h-1.73Z" fill="#fff"/><path d="M539.58,137.61c1.5,0,2.66,.51,3.49,1.54,.83,1.02,1.24,2.47,1.24,4.35s-.42,3.33-1.25,4.37c-.84,1.04-2,1.56-3.48,1.56-.74,0-1.42-.14-2.04-.41-.61-.27-1.13-.7-1.55-1.27h-.12l-.36,1.47h-1.24v-16.2h1.73v3.94c0,.88-.03,1.67-.08,2.37h.08c.81-1.14,2-1.71,3.58-1.71Zm-.25,1.45c-1.18,0-2.03,.34-2.55,1.02-.52,.68-.78,1.82-.78,3.42s.27,2.75,.8,3.44c.53,.69,1.39,1.04,2.57,1.04,1.06,0,1.85-.39,2.37-1.16,.52-.77,.78-1.89,.78-3.34s-.26-2.59-.78-3.32c-.52-.73-1.33-1.09-2.42-1.09Z" fill="#fff"/><path d="M552.54,137.59c.51,0,.96,.04,1.36,.12l-.24,1.6c-.47-.1-.89-.16-1.25-.16-.92,0-1.71,.37-2.37,1.12s-.98,1.68-.98,2.8v6.12h-1.73v-11.41h1.43l.2,2.11h.08c.42-.74,.93-1.32,1.53-1.72,.6-.4,1.25-.6,1.97-.6Z" fill="#fff"/><path d="M563.06,149.21l-.34-1.62h-.08c-.57,.72-1.14,1.2-1.7,1.45-.57,.25-1.27,.38-2.12,.38-1.13,0-2.02-.29-2.66-.87s-.96-1.41-.96-2.49c0-2.3,1.84-3.51,5.53-3.62l1.94-.06v-.71c0-.9-.19-1.56-.58-1.98-.39-.43-1-.64-1.85-.64-.95,0-2.03,.29-3.23,.87l-.53-1.32c.56-.31,1.18-.54,1.85-.72,.67-.17,1.34-.26,2.02-.26,1.36,0,2.37,.3,3.02,.91,.66,.6,.98,1.57,.98,2.91v7.79h-1.28Zm-3.9-1.22c1.08,0,1.92-.29,2.54-.89,.61-.59,.92-1.42,.92-2.48v-1.03l-1.73,.07c-1.37,.05-2.37,.26-2.97,.64-.61,.38-.91,.97-.91,1.77,0,.62,.19,1.1,.57,1.43,.38,.33,.91,.49,1.59,.49Z" fill="#fff"/><path d="M575.71,149.21v-7.38c0-.93-.21-1.62-.64-2.08-.42-.46-1.09-.69-1.99-.69-1.19,0-2.07,.32-2.62,.97-.56,.65-.83,1.71-.83,3.2v5.99h-1.73v-11.41h1.41l.28,1.56h.08c.35-.56,.85-1,1.49-1.31,.64-.31,1.35-.46,2.13-.46,1.37,0,2.41,.33,3.1,.99,.69,.66,1.04,1.72,1.04,3.18v7.45h-1.73Z" fill="#fff"/></g><g><path d="M461.57,81.98c0,1.34-.49,2.38-1.46,3.13-.97,.75-2.29,1.12-3.96,1.12-1.81,0-3.19-.23-4.17-.7v-1.71c.62,.26,1.31,.47,2.04,.62,.74,.15,1.46,.23,2.19,.23,1.18,0,2.07-.22,2.67-.67,.6-.45,.9-1.07,.9-1.87,0-.53-.11-.96-.32-1.3-.21-.34-.57-.65-1.06-.93-.5-.28-1.25-.61-2.26-.97-1.42-.51-2.43-1.11-3.04-1.8-.61-.69-.91-1.6-.91-2.72,0-1.17,.44-2.11,1.32-2.8,.88-.69,2.05-1.04,3.5-1.04s2.91,.28,4.18,.83l-.55,1.54c-1.26-.53-2.48-.79-3.67-.79-.94,0-1.67,.2-2.2,.6-.53,.4-.79,.96-.79,1.68,0,.53,.1,.96,.29,1.3,.19,.34,.52,.65,.98,.93,.46,.28,1.17,.59,2.12,.93,1.6,.57,2.7,1.18,3.3,1.83,.6,.65,.9,1.5,.9,2.54Z" fill="#fff"/><path d="M468.99,86.24c-1.65,0-2.93-.51-3.84-1.53-.91-1.02-1.36-2.46-1.36-4.32s.46-3.38,1.38-4.43c.92-1.04,2.23-1.56,3.93-1.56,.55,0,1.1,.06,1.65,.18,.55,.12,.98,.26,1.29,.42l-.53,1.47c-.38-.15-.8-.28-1.25-.38-.45-.1-.85-.15-1.2-.15-2.32,0-3.48,1.48-3.48,4.44,0,1.4,.28,2.48,.85,3.23,.57,.75,1.4,1.12,2.51,1.12,.95,0,1.93-.2,2.93-.61v1.53c-.76,.4-1.73,.59-2.88,.59Z" fill="#fff"/><path d="M482.39,86.03v-7.38c0-.93-.21-1.62-.64-2.08-.42-.46-1.09-.69-1.99-.69-1.2,0-2.08,.33-2.63,.98-.55,.65-.83,1.72-.83,3.21v5.97h-1.73v-16.2h1.73v4.9c0,.59-.03,1.08-.08,1.47h.1c.34-.55,.82-.98,1.45-1.3,.63-.32,1.34-.47,2.15-.47,1.4,0,2.44,.33,3.14,.99,.7,.66,1.05,1.72,1.05,3.16v7.45h-1.73Z" fill="#fff"/><path d="M489.39,86.03h-1.73v-16.2h1.73v16.2Z" fill="#fff"/><path d="M497.88,86.24c-1.69,0-3.02-.51-3.99-1.54-.98-1.03-1.46-2.45-1.46-4.28s.45-3.3,1.36-4.38c.91-1.08,2.12-1.62,3.65-1.62,1.43,0,2.56,.47,3.39,1.41,.83,.94,1.25,2.18,1.25,3.72v1.09h-7.86c.03,1.34,.37,2.36,1.02,3.05,.64,.69,1.55,1.04,2.71,1.04,1.23,0,2.44-.26,3.64-.77v1.54c-.61,.26-1.19,.45-1.73,.57-.55,.11-1.2,.17-1.97,.17Zm-.47-10.38c-.92,0-1.65,.3-2.19,.9-.55,.6-.87,1.42-.96,2.48h5.97c0-1.09-.24-1.92-.73-2.5-.49-.58-1.18-.87-2.08-.87Z" fill="#fff"/><path d="M504.88,71.52c0-.4,.1-.69,.29-.87,.19-.18,.44-.28,.73-.28s.52,.09,.72,.28c.2,.19,.3,.48,.3,.86s-.1,.68-.3,.87c-.2,.19-.44,.29-.72,.29-.29,0-.53-.1-.73-.29-.19-.19-.29-.48-.29-.87Zm1.87,14.51h-1.73v-11.41h1.73v11.41Z" fill="#fff"/><path d="M524.97,86.03v-7.42c0-.91-.19-1.59-.58-2.05-.39-.45-.99-.68-1.81-.68-1.08,0-1.87,.31-2.38,.93-.51,.62-.77,1.57-.77,2.85v6.37h-1.73v-7.42c0-.91-.19-1.59-.58-2.05-.39-.45-1-.68-1.82-.68-1.08,0-1.88,.32-2.38,.97-.5,.65-.75,1.71-.75,3.19v5.99h-1.73v-11.41h1.41l.28,1.56h.08c.33-.56,.79-.99,1.38-1.3,.59-.31,1.26-.47,1.99-.47,1.78,0,2.95,.65,3.5,1.94h.08c.34-.6,.83-1.07,1.48-1.42,.65-.35,1.38-.52,2.21-.52,1.29,0,2.26,.33,2.9,.99,.64,.66,.96,1.72,.96,3.18v7.45h-1.73Z" fill="#fff"/><path d="M538.07,86.03v-7.38c0-.93-.21-1.62-.64-2.08-.42-.46-1.09-.69-1.99-.69-1.2,0-2.08,.33-2.63,.98-.55,.65-.83,1.72-.83,3.21v5.97h-1.73v-16.2h1.73v4.9c0,.59-.03,1.08-.08,1.47h.1c.34-.55,.82-.98,1.45-1.3,.63-.32,1.34-.47,2.15-.47,1.4,0,2.44,.33,3.14,.99,.7,.66,1.05,1.72,1.05,3.16v7.45h-1.73Z" fill="#fff"/><path d="M544.97,74.62v7.4c0,.93,.21,1.62,.64,2.08,.42,.46,1.09,.69,1.99,.69,1.19,0,2.07-.33,2.62-.98,.55-.65,.83-1.72,.83-3.2v-6h1.73v11.41h-1.43l-.25-1.53h-.09c-.35,.56-.85,.99-1.47,1.29-.63,.3-1.35,.45-2.15,.45-1.39,0-2.43-.33-3.12-.99-.69-.66-1.04-1.71-1.04-3.17v-7.47h1.75Zm.1-3.09c0-.36,.09-.62,.28-.78,.18-.16,.4-.24,.66-.24s.49,.08,.68,.24c.19,.16,.29,.42,.29,.78s-.1,.61-.29,.78c-.19,.17-.42,.26-.68,.26s-.48-.08-.66-.26c-.18-.17-.28-.43-.28-.78Zm3.97,0c0-.36,.09-.62,.28-.78,.18-.16,.4-.24,.66-.24s.48,.08,.67,.24c.19,.16,.29,.42,.29,.78s-.1,.61-.29,.78c-.19,.17-.41,.26-.67,.26s-.48-.08-.66-.26c-.18-.17-.28-.43-.28-.78Z" fill="#fff"/><path d="M558.16,86.03h-1.73v-16.2h1.73v16.2Z" fill="#fff"/><path d="M563.56,86.03h-1.73v-16.2h1.73v16.2Z" fill="#fff"/><path d="M572.04,86.24c-1.69,0-3.02-.51-3.99-1.54-.98-1.03-1.46-2.45-1.46-4.28s.45-3.3,1.36-4.38c.91-1.08,2.12-1.62,3.65-1.62,1.43,0,2.56,.47,3.39,1.41,.83,.94,1.25,2.18,1.25,3.72v1.09h-7.86c.03,1.34,.37,2.36,1.02,3.05,.64,.69,1.55,1.04,2.71,1.04,1.23,0,2.44-.26,3.64-.77v1.54c-.61,.26-1.19,.45-1.73,.57-.55,.11-1.2,.17-1.97,.17Zm-.47-10.38c-.92,0-1.65,.3-2.19,.9-.55,.6-.87,1.42-.96,2.48h5.97c0-1.09-.24-1.92-.73-2.5-.49-.58-1.18-.87-2.08-.87Z" fill="#fff"/></g><g><path d="M32.59,457.46c0,1.54-.53,2.73-1.58,3.56-1.05,.83-2.56,1.24-4.51,1.24h-1.79v5.99h-1.77v-15.22h3.95c3.8,0,5.71,1.48,5.71,4.44Zm-7.88,3.28h1.59c1.57,0,2.7-.25,3.41-.76,.7-.51,1.05-1.32,1.05-2.44,0-1.01-.33-1.76-.99-2.25-.66-.49-1.69-.74-3.08-.74h-1.98v6.19Z" fill="#fff"/><path d="M37.24,468.25h-1.73v-16.2h1.73v16.2Z" fill="#fff"/><path d="M47.93,468.25l-.34-1.62h-.08c-.57,.72-1.14,1.2-1.7,1.45-.57,.25-1.27,.38-2.12,.38-1.13,0-2.02-.29-2.66-.87-.64-.58-.96-1.41-.96-2.49,0-2.3,1.84-3.51,5.53-3.62l1.94-.06v-.71c0-.9-.19-1.56-.58-1.98-.39-.43-1-.64-1.85-.64-.95,0-2.03,.29-3.23,.87l-.53-1.32c.56-.31,1.18-.54,1.85-.72,.67-.17,1.34-.26,2.01-.26,1.36,0,2.37,.3,3.02,.91,.66,.6,.98,1.57,.98,2.91v7.79h-1.28Zm-3.9-1.22c1.08,0,1.92-.29,2.54-.89,.61-.59,.92-1.42,.92-2.48v-1.03l-1.73,.07c-1.37,.05-2.37,.26-2.97,.64-.61,.38-.91,.97-.91,1.77,0,.62,.19,1.1,.57,1.43,.38,.33,.91,.49,1.59,.49Z" fill="#fff"/><path d="M60.13,465.13c0,1.06-.4,1.88-1.19,2.46-.79,.58-1.9,.86-3.33,.86-1.51,0-2.69-.24-3.54-.72v-1.6c.55,.28,1.14,.5,1.76,.66,.63,.16,1.23,.24,1.82,.24,.9,0,1.6-.14,2.08-.43,.49-.29,.73-.73,.73-1.32,0-.44-.19-.82-.58-1.14-.39-.32-1.14-.69-2.25-1.12-1.06-.4-1.82-.74-2.26-1.04-.45-.3-.78-.63-1-1s-.33-.82-.33-1.34c0-.93,.38-1.66,1.14-2.2,.76-.54,1.79-.81,3.11-.81,1.23,0,2.43,.25,3.6,.75l-.61,1.41c-1.15-.47-2.18-.71-3.11-.71-.82,0-1.44,.13-1.85,.39-.42,.26-.62,.61-.62,1.06,0,.31,.08,.57,.23,.78,.16,.22,.41,.42,.75,.61,.35,.19,1.01,.48,2,.84,1.35,.49,2.27,.99,2.74,1.49,.48,.5,.71,1.13,.71,1.88Z" fill="#fff"/><path d="M77.49,468.25v-7.42c0-.91-.19-1.59-.58-2.05-.39-.45-.99-.68-1.81-.68-1.08,0-1.87,.31-2.38,.93-.51,.62-.77,1.57-.77,2.85v6.37h-1.73v-7.42c0-.91-.19-1.59-.58-2.05-.39-.45-1-.68-1.82-.68-1.08,0-1.88,.32-2.38,.97-.5,.65-.75,1.71-.75,3.19v5.99h-1.73v-11.41h1.41l.28,1.56h.08c.33-.56,.79-.99,1.38-1.3,.59-.31,1.26-.47,1.99-.47,1.78,0,2.95,.65,3.5,1.94h.08c.34-.6,.83-1.07,1.48-1.42,.65-.35,1.38-.52,2.21-.52,1.29,0,2.26,.33,2.9,.99,.64,.66,.96,1.72,.96,3.18v7.45h-1.73Z" fill="#fff"/><path d="M82.63,453.74c0-.4,.1-.69,.29-.87,.19-.18,.44-.28,.73-.28s.52,.09,.72,.28c.2,.19,.3,.48,.3,.86s-.1,.68-.3,.87c-.2,.19-.44,.29-.72,.29-.29,0-.53-.1-.73-.29-.19-.19-.29-.48-.29-.87Zm1.87,14.51h-1.73v-11.41h1.73v11.41Z" fill="#fff"/><path d="M95.94,466.72h-.09c-.8,1.16-1.99,1.74-3.58,1.74-1.49,0-2.65-.51-3.48-1.53-.83-1.02-1.24-2.47-1.24-4.35s.42-3.34,1.25-4.38c.83-1.04,1.99-1.56,3.48-1.56s2.74,.56,3.56,1.69h.14l-.07-.82-.04-.8v-4.64h1.73v16.2h-1.41l-.23-1.53Zm-3.46,.29c1.18,0,2.04-.32,2.57-.96,.53-.64,.8-1.68,.8-3.11v-.36c0-1.62-.27-2.77-.81-3.46-.54-.69-1.4-1.04-2.58-1.04-1.01,0-1.79,.39-2.33,1.18-.54,.79-.81,1.9-.81,3.34s.27,2.56,.8,3.3c.53,.74,1.32,1.11,2.35,1.11Z" fill="#fff"/></g><g><path d="M29.63,524.8h5.18v7.4c-.81,.26-1.62,.45-2.46,.58-.83,.13-1.8,.2-2.89,.2-2.3,0-4.1-.69-5.38-2.06-1.28-1.37-1.93-3.29-1.93-5.76,0-1.58,.32-2.97,.95-4.16,.64-1.19,1.55-2.1,2.74-2.73,1.19-.63,2.59-.94,4.2-.94s3.14,.3,4.54,.9l-.69,1.56c-1.37-.58-2.7-.87-3.97-.87-1.85,0-3.3,.55-4.34,1.66-1.04,1.1-1.56,2.63-1.56,4.59,0,2.05,.5,3.61,1.5,4.68,1,1.06,2.48,1.59,4.42,1.59,1.06,0,2.09-.12,3.09-.36v-4.69h-3.41v-1.58Z" fill="#fff"/><path d="M43.02,532.98c-1.69,0-3.02-.51-3.99-1.54-.98-1.03-1.46-2.45-1.46-4.28s.45-3.3,1.36-4.38c.91-1.08,2.12-1.62,3.65-1.62,1.43,0,2.56,.47,3.39,1.41,.83,.94,1.25,2.18,1.25,3.72v1.09h-7.86c.03,1.34,.37,2.36,1.02,3.05,.64,.69,1.55,1.04,2.71,1.04,1.23,0,2.44-.26,3.64-.77v1.54c-.61,.26-1.19,.45-1.73,.57-.55,.11-1.2,.17-1.97,.17Zm-.47-10.38c-.92,0-1.65,.3-2.19,.9-.55,.6-.87,1.42-.96,2.48h5.97c0-1.09-.24-1.92-.73-2.5-.49-.58-1.18-.87-2.08-.87Z" fill="#fff"/><path d="M50.02,518.27c0-.4,.1-.69,.29-.87,.19-.18,.44-.28,.73-.28s.52,.09,.72,.28c.2,.19,.3,.48,.3,.86s-.1,.68-.3,.87c-.2,.19-.44,.29-.72,.29-.29,0-.53-.1-.73-.29-.19-.19-.29-.48-.29-.87Zm1.87,14.51h-1.73v-11.41h1.73v11.41Z" fill="#fff"/><path d="M64.65,519.59c0,.94-.5,1.81-1.49,2.6-.61,.49-1.01,.85-1.21,1.08-.19,.23-.29,.46-.29,.69s.05,.41,.14,.55c.09,.15,.26,.32,.51,.52,.25,.2,.64,.47,1.18,.83,.97,.66,1.63,1.26,1.99,1.81,.35,.55,.53,1.17,.53,1.87,0,1.11-.34,1.96-1.01,2.56-.67,.59-1.63,.89-2.87,.89-1.31,0-2.33-.24-3.07-.72v-1.6c.44,.27,.93,.49,1.47,.65,.54,.16,1.06,.24,1.56,.24,1.49,0,2.24-.63,2.24-1.9,0-.52-.14-.97-.43-1.34-.29-.37-.81-.8-1.58-1.29-.88-.57-1.49-1.07-1.82-1.49-.33-.43-.5-.93-.5-1.52,0-.44,.12-.84,.36-1.21,.24-.37,.61-.74,1.1-1.1,.52-.4,.89-.75,1.11-1.06,.22-.31,.33-.65,.33-1.02,0-.56-.24-.98-.71-1.28-.47-.29-1.15-.44-2.03-.44-1.92,0-2.87,.77-2.87,2.32v12.54h-1.73v-12.52c0-1.24,.38-2.18,1.15-2.83,.76-.65,1.92-.97,3.46-.97,1.43,0,2.54,.27,3.32,.82,.78,.55,1.17,1.32,1.17,2.32Z" fill="#fff"/><path d="M73.65,532.98c-1.69,0-3.02-.51-3.99-1.54-.98-1.03-1.46-2.45-1.46-4.28s.45-3.3,1.36-4.38c.91-1.08,2.12-1.62,3.65-1.62,1.43,0,2.56,.47,3.39,1.41,.83,.94,1.25,2.18,1.25,3.72v1.09h-7.86c.03,1.34,.37,2.36,1.02,3.05,.64,.69,1.55,1.04,2.71,1.04,1.23,0,2.44-.26,3.64-.77v1.54c-.61,.26-1.19,.45-1.73,.57-.55,.11-1.2,.17-1.97,.17Zm-.47-10.38c-.92,0-1.65,.3-2.19,.9-.55,.6-.87,1.42-.96,2.48h5.97c0-1.09-.24-1.92-.73-2.5-.49-.58-1.18-.87-2.08-.87Z" fill="#fff"/><path d="M82.52,532.78h-1.73v-16.2h1.73v16.2Z" fill="#fff"/></g><g><line x1="367.79" y1="19.51" x2="230.55" y2="113.82" fill="none" stroke="#fff" stroke-linecap="round" stroke-linejoin="round" stroke-width="2.03"/><path d="M228.55,110.57c-1.74,1.19-2.18,3.57-.98,5.31,1.19,1.74,3.57,2.18,5.31,.98,1.74-1.19,2.18-3.57,.98-5.31-1.19-1.74-3.57-2.18-5.31-.98Z" fill="#fff"/></g><g><line x1="445.87" y1="79.41" x2="332.32" y2="128.61" fill="none" stroke="#fff" stroke-linecap="round" stroke-linejoin="round" stroke-width="2.03"/><path d="M330.98,125.03c-1.94,.84-2.82,3.09-1.99,5.02,.84,1.93,3.09,2.82,5.02,1.99,1.93-.84,2.82-3.09,1.99-5.02s-3.09-2.82-5.02-1.99Z" fill="#fff"/></g><g><line x1="481.77" y1="209.39" x2="389.57" y2="241.95" fill="none" stroke="#fff" stroke-linecap="round" stroke-linejoin="round" stroke-width="2.03"/><path d="M388.48,238.29c-1.99,.7-3.03,2.88-2.33,4.87,.7,1.99,2.88,3.03,4.87,2.33,1.99-.7,3.03-2.88,2.33-4.87-.7-1.99-2.88-3.03-4.87-2.33Z" fill="#fff"/></g><g><line x1="440.37" y1="142.8" x2="338.53" y2="168.83" fill="none" stroke="#fff" stroke-linecap="round" stroke-linejoin="round" stroke-width="2.03"/><path d="M337.77,165.08c-2.04,.52-3.28,2.6-2.75,4.64,.52,2.04,2.6,3.28,4.64,2.75,2.04-.52,3.28-2.6,2.75-4.64-.52-2.04-2.6-3.28-4.64-2.75Z" fill="#fff"/></g><g><line x1="134.31" y1="398.53" x2="219.43" y2="291.02" fill="none" stroke="#fff" stroke-linecap="round" stroke-linejoin="round" stroke-width="2.03"/><path d="M222.31,293.54c1.31-1.65,1.03-4.05-.62-5.36-1.65-1.31-4.05-1.03-5.36,.62-1.31,1.65-1.03,4.06,.62,5.36s4.05,1.03,5.36-.62Z" fill="#fff"/></g><g><line x1="103.42" y1="459.93" x2="248.12" y2="328.47" fill="none" stroke="#fff" stroke-linecap="round" stroke-linejoin="round" stroke-width="2.03"/><path d="M250.55,331.42c1.56-1.42,1.68-3.83,.26-5.39-1.42-1.56-3.83-1.68-5.39-.26-1.56,1.42-1.68,3.83-.26,5.39,1.42,1.56,3.83,1.68,5.39,.26Z" fill="#fff"/></g><g><line x1="88.72" y1="526.45" x2="258.76" y2="480.81" fill="none" stroke="#fff" stroke-linecap="round" stroke-linejoin="round" stroke-width="2.03"/><path d="M259.57,484.55c2.04-.55,3.24-2.64,2.7-4.68-.55-2.04-2.64-3.24-4.68-2.7-2.04,.55-3.24,2.64-2.7,4.68,.55,2.04,2.64,3.24,4.68,2.7Z" fill="#fff"/></g></g><g><circle cx="134.32" cy="216.49" r="6.74" fill="#ae9888"/><circle cx="108.06" cy="101.54" r="6.74" fill="#ae9888"/><circle cx="278.33" cy="142.47" r="6.74" fill="#ae9888"/><circle cx="269.16" cy="222.22" r="6.74" fill="#ae9888"/><circle cx="275.89" cy="273.84" r="6.74" fill="#ae9888"/><circle cx="340.6" cy="283.48" r="11.61" fill="#ae9888"/><circle cx="202.7" cy="273.84" r="11.61" fill="#ae9888"/><circle cx="295.5" cy="180.68" r="11.61" fill="#ae9888"/><circle cx="152.66" cy="67.69" r="11.61" fill="#ae9888"/><circle cx="77.82" cy="136" r="2.33" fill="#ae9888"/><circle cx="143.38" cy="136" r="2.33" fill="#ae9888"/><circle cx="216.64" cy="81.64" r="2.33" fill="#ae9888"/><circle cx="253.7" cy="76.2" r="2.33" fill="#ae9888"/><circle cx="234.01" cy="199.18" r="2.33" fill="#ae9888"/><circle cx="246.9" cy="353.75" r="2.33" fill="#ae9888"/><circle cx="320.41" cy="320.84" r="2.33" fill="#ae9888"/><circle cx="335.02" cy="232.1" r="2.33" fill="#ae9888"/></g></g></g></svg>